<svg width="16" height="16" viewBox="0 0 16 16" fill="none" xmlns="http://www.w3.org/2000/svg">
<path d="M3.60643 12.3545C3.42028 12.1683 3.40477 11.8762 3.55989 11.6723L3.60643 11.6191L10.9603 4.26527C11.1633 4.0622 11.4926 4.0622 11.6956 4.26527C11.8818 4.45142 11.8973 4.74359 11.7422 4.94741L11.6956 5.00066L4.34181 12.3545C4.13874 12.5575 3.8095 12.5575 3.60643 12.3545Z" fill="white" stroke="white" stroke-width="0.572"/>
<path d="M5.40947 5.16562C5.12229 5.16624 4.88898 4.93393 4.88836 4.64674C4.8878 4.38567 5.07973 4.16912 5.3304 4.13144L5.40723 4.12563L11.3266 4.11289C11.5884 4.11232 11.8053 4.30537 11.8422 4.55688L11.8477 4.63395L11.8354 10.5538C11.8348 10.841 11.6015 11.0733 11.3144 11.0727C11.0533 11.0722 10.8375 10.8793 10.8009 10.6285L10.7954 10.5516L10.8063 5.15397L5.40947 5.16562Z" fill="white" stroke="white" stroke-width="0.572"/>
</svg>
