<svg width="29" height="26" viewBox="0 0 29 26" fill="none" xmlns="http://www.w3.org/2000/svg">
<path fill-rule="evenodd" clip-rule="evenodd" d="M14.6864 0C6.9375 0 0.650635 5.82292 0.650635 13C0.650635 20.1771 6.9375 26 14.6864 26C22.4202 26 28.7222 20.1771 28.7222 13C28.7222 5.82292 22.4202 0 14.6864 0ZM23.9571 5.99192C25.6852 7.9412 26.6415 10.3793 26.6672 12.9014C26.2718 12.831 22.3137 12.0835 18.3252 12.5493C18.2328 12.3652 18.1568 12.168 18.0656 11.9708C17.8175 11.4285 17.5538 10.8924 17.2749 10.3632C21.6891 8.69917 23.6986 6.30283 23.9571 5.99192ZM14.6864 1.91858C17.731 1.91858 20.5171 2.97483 22.633 4.70925C22.4202 4.99092 20.6084 7.23342 16.3462 8.71325C14.3812 5.37225 12.2056 2.63575 11.8699 2.21325C12.7931 2.01358 13.7384 1.91432 14.6864 1.9175V1.91858ZM9.58676 2.96075C9.90607 3.35617 12.0372 6.10567 14.0314 9.37625C8.42881 10.7586 3.48119 10.7304 2.949 10.7304C3.72564 7.28975 6.23805 4.42758 9.58676 2.96075ZM2.6905 13.0141V12.6761C3.20866 12.6902 9.02299 12.7606 15.0069 11.0966C15.3566 11.7173 15.676 12.3511 15.9801 12.9859C15.828 13.0282 15.6608 13.0704 15.5087 13.1127C9.32827 14.9598 6.03921 20.007 5.76551 20.4306C3.78578 18.3956 2.69027 15.7533 2.6905 13.0141ZM14.6864 24.1107C11.9155 24.1107 9.35868 23.2364 7.33401 21.7707C7.54689 21.3612 9.9821 17.0181 16.7415 14.833C16.7719 14.8189 16.7883 14.8189 16.8175 14.8048C18.5077 18.8511 19.1919 22.2495 19.3756 23.2223C17.9287 23.8008 16.3462 24.1107 14.6864 24.1107ZM21.3698 22.2073C21.2482 21.5302 20.6084 18.2878 19.0399 14.2968C22.8003 13.7475 26.0882 14.6499 26.4999 14.7767C25.9817 17.8642 24.0635 20.5292 21.3698 22.2073Z" fill="#0B0B0B"/>
</svg>
