<svg width="45" height="26" viewBox="0 0 45 26" fill="none" xmlns="http://www.w3.org/2000/svg">
<path d="M29.3933 1.71986H40.5515V4.22714H29.3933V1.71986ZM18.2128 11.6402C20.6793 10.5471 21.9713 8.88424 21.9713 6.3148C21.9713 1.23291 17.8884 0 13.1734 0H0.19751V25.5079H13.537C18.5372 25.5079 23.2298 23.2803 23.2298 18.1C23.2298 14.8986 21.5966 12.5312 18.2128 11.6402ZM6.24921 4.35146H11.9262C14.1131 4.35146 16.0762 4.91612 16.0762 7.26798C16.0762 9.43335 14.5493 10.3036 12.3848 10.3036H6.24921V4.35146ZM12.7092 21.1771H6.24362V14.1526H12.8378C15.5001 14.1526 17.1837 15.1835 17.1837 17.7944C17.1837 20.3638 15.1757 21.1771 12.7092 21.1771ZM44.9141 16.5407C44.9141 11.0755 41.4632 6.52202 35.2213 6.52202C29.1528 6.52202 25.0251 10.7543 25.0251 16.3025C25.0251 22.0526 28.9347 26 35.2213 26C39.981 26 43.0628 24.0159 44.5449 19.7836H39.7181C39.1924 21.3636 37.0558 22.1925 35.3947 22.1925C32.1843 22.1925 30.5063 20.4519 30.5063 17.4939H44.8749C44.8917 17.1883 44.9141 16.8671 44.9141 16.5407ZM30.5063 14.2925C30.6797 11.8629 32.4304 10.3451 35.0479 10.3451C37.7997 10.3451 39.1756 11.8422 39.4161 14.2925H30.5063Z" fill="#0B0B0B"/>
</svg>
