<svg width="29" height="26" viewBox="0 0 29 26" fill="none" xmlns="http://www.w3.org/2000/svg">
<path d="M21.6489 7.62098C22.5791 7.62098 23.3332 6.92254 23.3332 6.06098C23.3332 5.19941 22.5791 4.50098 21.6489 4.50098C20.7187 4.50098 19.9646 5.19941 19.9646 6.06098C19.9646 6.92254 20.7187 7.62098 21.6489 7.62098Z" fill="#0B0B0B"/>
<path d="M14.1559 6.32422C12.7304 6.32422 11.3369 6.71573 10.1517 7.44924C8.96642 8.18276 8.04263 9.22533 7.49712 10.4451C6.95161 11.6649 6.80888 13.0071 7.08698 14.302C7.36508 15.597 8.05151 16.7864 9.05948 17.72C10.0675 18.6536 11.3517 19.2894 12.7498 19.547C14.1479 19.8045 15.597 19.6723 16.914 19.1671C18.231 18.6618 19.3566 17.8062 20.1486 16.7084C20.9405 15.6106 21.3633 14.32 21.3633 12.9997C21.3633 11.2293 20.6039 9.53133 19.2523 8.27943C17.9006 7.02753 16.0674 6.32422 14.1559 6.32422ZM14.1559 17.3331C13.2305 17.3331 12.326 17.0789 11.5566 16.6028C10.7872 16.1266 10.1875 15.4498 9.83341 14.658C9.4793 13.8662 9.38665 12.9949 9.56717 12.1543C9.7477 11.3137 10.1933 10.5416 10.8476 9.93559C11.5019 9.32956 12.3356 8.91685 13.2431 8.74965C14.1507 8.58245 15.0914 8.66826 15.9463 8.99624C16.8012 9.32422 17.5319 9.87964 18.046 10.5922C18.5601 11.3049 18.8345 12.1427 18.8345 12.9997C18.8345 14.149 18.3415 15.2512 17.4641 16.0638C16.5867 16.8765 15.3967 17.3331 14.1559 17.3331Z" fill="#0B0B0B"/>
<path d="M14.1557 2.34217C17.9032 2.34217 18.3477 2.35517 19.8273 2.418C20.7172 2.42779 21.5987 2.57913 22.4333 2.86542C23.0388 3.08175 23.5886 3.41309 24.0475 3.83812C24.5064 4.26315 24.8642 4.77245 25.0977 5.33325C25.4068 6.10624 25.5702 6.92267 25.5808 7.74692C25.6487 9.11733 25.6627 9.529 25.6627 13.0011C25.6627 16.4732 25.6487 16.8827 25.5808 18.2531C25.5702 19.0773 25.4068 19.8938 25.0977 20.6667C24.8642 21.2276 24.5064 21.7369 24.0475 22.1619C23.5886 22.5869 23.0388 22.9183 22.4333 23.1346C21.5987 23.4209 20.7172 23.5722 19.8273 23.582C18.3477 23.6448 17.9032 23.6578 14.1557 23.6578C10.4081 23.6578 9.96365 23.6448 8.48404 23.582C7.59412 23.5722 6.71264 23.4209 5.87806 23.1346C5.27258 22.9183 4.72269 22.5869 4.2638 22.1619C3.80491 21.7369 3.44717 21.2276 3.2136 20.6667C2.9045 19.8938 2.7411 19.0773 2.73053 18.2531C2.66269 16.8827 2.64866 16.471 2.64866 13C2.64866 9.529 2.66269 9.11733 2.73053 7.74692C2.7411 6.92267 2.9045 6.10624 3.2136 5.33325C3.44717 4.77245 3.80491 4.26315 4.2638 3.83812C4.72269 3.41309 5.27258 3.08175 5.87806 2.86542C6.71264 2.57913 7.59412 2.42779 8.48404 2.418C9.96365 2.35517 10.4081 2.34217 14.1557 2.34217ZM14.1557 0C10.3438 0 9.8654 0.0151667 8.36824 0.078C7.20418 0.0997708 6.05252 0.304167 4.96222 0.6825C4.02969 1.01649 3.18279 1.52726 2.4758 2.18207C1.76882 2.83688 1.21735 3.62128 0.856753 4.485C0.448145 5.49518 0.227461 6.56222 0.204088 7.64075C0.136248 9.02742 0.119873 9.46833 0.119873 13C0.119873 16.5317 0.136248 16.9737 0.204088 18.3603C0.227593 19.4385 0.448275 20.5052 0.856753 21.515C1.21735 22.3787 1.76882 23.1631 2.4758 23.8179C3.18279 24.4727 4.02969 24.9835 4.96222 25.3175C6.05289 25.696 7.20495 25.9004 8.36941 25.922C9.86657 25.9848 10.3438 26 14.1557 26C17.9676 26 18.4459 25.9848 19.9431 25.922C21.1076 25.9004 22.2596 25.696 23.3503 25.3175C24.2828 24.9835 25.1297 24.4727 25.8367 23.8179C26.5437 23.1631 27.0952 22.3787 27.4558 21.515C27.864 20.5048 28.0843 19.4377 28.1073 18.3593C28.1751 16.9726 28.1915 16.5317 28.1915 13C28.1915 9.46833 28.1751 9.02633 28.1073 7.63967C28.0838 6.56151 27.8631 5.49484 27.4546 4.485C27.094 3.62128 26.5425 2.83688 25.8355 2.18207C25.1286 1.52726 24.2817 1.01649 23.3491 0.6825C22.2584 0.304416 21.1063 0.100385 19.9419 0.0790833C18.4448 0.0140833 17.9687 0 14.1557 0Z" fill="#0B0B0B"/>
</svg>
