<svg width="30" height="26" viewBox="0 0 30 26" fill="none" xmlns="http://www.w3.org/2000/svg">
<path d="M6.92884 26V8.45784H0.633622V26H6.92884ZM3.78204 6.06132C5.9773 6.06132 7.34374 4.71429 7.34374 3.03095C7.30284 1.30964 5.97738 0 3.8237 0C1.67036 0 0.262207 1.30967 0.262207 3.03095C0.262207 4.71437 1.62831 6.06132 3.74095 6.06132H3.78185H3.78204ZM10.4132 26H16.7084V16.2036C16.7084 15.6793 16.7493 15.1556 16.9156 14.7808C17.3707 13.7333 18.4065 12.6483 20.1455 12.6483C22.4235 12.6483 23.3348 14.257 23.3348 16.6152V25.9999H29.6296V15.9414C29.6296 10.5531 26.5239 8.046 22.382 8.046C18.986 8.046 17.4949 9.80418 16.6666 11.0017H16.7086V8.45748H10.4134C10.496 10.1035 10.4134 25.9996 10.4134 25.9996L10.4132 26Z" fill="#0B0B0B"/>
</svg>
