<svg width="111" height="52" viewBox="0 0 111 52" fill="none" xmlns="http://www.w3.org/2000/svg">
<mask id="path-1-outside-1_201_152" maskUnits="userSpaceOnUse" x="-1" y="-2" width="113" height="55" fill="black">
<rect fill="white" x="-1" y="-2" width="113" height="55"/>
<path d="M0.52 10V0.969998H17.39V52H7.31V10H0.52ZM27.0713 25.82C27.0713 17.7467 28.518 11.4233 31.4113 6.85C34.3513 2.27666 39.2047 -0.0100021 45.9713 -0.0100021C52.738 -0.0100021 57.568 2.27666 60.4613 6.85C63.4013 11.4233 64.8713 17.7467 64.8713 25.82C64.8713 33.94 63.4013 40.31 60.4613 44.93C57.568 49.55 52.738 51.86 45.9713 51.86C39.2047 51.86 34.3513 49.55 31.4113 44.93C28.518 40.31 27.0713 33.94 27.0713 25.82ZM55.2113 25.82C55.2113 22.3667 54.978 19.4733 54.5113 17.14C54.0913 14.76 53.2047 12.8233 51.8513 11.33C50.5447 9.83666 48.5847 9.09 45.9713 9.09C43.358 9.09 41.3747 9.83666 40.0213 11.33C38.7147 12.8233 37.828 14.76 37.3613 17.14C36.9413 19.4733 36.7313 22.3667 36.7313 25.82C36.7313 29.3667 36.9413 32.3533 37.3613 34.78C37.7813 37.16 38.668 39.0967 40.0213 40.59C41.3747 42.0367 43.358 42.76 45.9713 42.76C48.5847 42.76 50.568 42.0367 51.9213 40.59C53.2747 39.0967 54.1613 37.16 54.5813 34.78C55.0013 32.3533 55.2113 29.3667 55.2113 25.82ZM110.055 31.35H96.8252V44.93H87.5852V31.35H74.3552V22.81H87.5852V9.23H96.8252V22.81H110.055V31.35Z"/>
</mask>
<path d="M0.52 10H-0.48V11H0.52V10ZM0.52 0.969997V-0.0300026H-0.48V0.969997H0.52ZM17.39 0.969997H18.39V-0.0300026H17.39V0.969997ZM17.39 52V53H18.39V52H17.39ZM7.31 52H6.31V53H7.31V52ZM7.31 10H8.31V9H7.31V10ZM1.52 10V0.969997H-0.48V10H1.52ZM0.52 1.97H17.39V-0.0300026H0.52V1.97ZM16.39 0.969997V52H18.39V0.969997H16.39ZM17.39 51H7.31V53H17.39V51ZM8.31 52V10H6.31V52H8.31ZM7.31 9H0.52V11H7.31V9ZM31.4113 6.85L30.5701 6.30923L30.5662 6.31536L31.4113 6.85ZM60.4613 6.85L59.6162 7.38465L59.6202 7.39075L60.4613 6.85ZM60.4613 44.93L59.6176 44.3931L59.6138 44.3992L60.4613 44.93ZM31.4113 44.93L30.5638 45.4608L30.5677 45.4669L31.4113 44.93ZM54.5113 17.14L53.5265 17.3138L53.5285 17.325L53.5308 17.3361L54.5113 17.14ZM51.8513 11.33L51.0988 11.9885L51.1045 11.9951L51.1103 12.0015L51.8513 11.33ZM40.0213 11.33L39.2803 10.6585L39.2745 10.6649L39.2688 10.6715L40.0213 11.33ZM37.3613 17.14L36.38 16.9476L36.3785 16.9552L36.3771 16.9628L37.3613 17.14ZM37.3613 34.78L36.376 34.9505L36.3765 34.9538L37.3613 34.78ZM40.0213 40.59L39.2803 41.2615L39.2857 41.2674L39.2911 41.2732L40.0213 40.59ZM51.9213 40.59L52.6516 41.2732L52.657 41.2674L52.6623 41.2615L51.9213 40.59ZM54.5813 34.78L55.5661 34.9538L55.5667 34.9505L54.5813 34.78ZM28.0713 25.82C28.0713 17.8489 29.5025 11.7376 32.2564 7.38464L30.5662 6.31536C27.5335 11.109 26.0713 17.6445 26.0713 25.82H28.0713ZM32.2525 7.39075C34.9624 3.1754 39.4498 0.989998 45.9713 0.989998V-1.01C38.9595 -1.01 33.7403 1.37793 30.5701 6.30924L32.2525 7.39075ZM45.9713 0.989998C52.4934 0.989998 56.9532 3.17532 59.6163 7.38464L61.3064 6.31536C58.1828 1.37801 52.9826 -1.01 45.9713 -1.01V0.989998ZM59.6202 7.39075C62.4177 11.7424 63.8713 17.8511 63.8713 25.82H65.8713C65.8713 17.6422 64.385 11.1042 61.3025 6.30924L59.6202 7.39075ZM63.8713 25.82C63.8713 33.836 62.4175 39.9934 59.6177 44.3931L61.305 45.4669C64.3852 40.6266 65.8713 34.044 65.8713 25.82H63.8713ZM59.6138 44.3992C56.9489 48.6546 52.4891 50.86 45.9713 50.86V52.86C52.9869 52.86 58.1871 50.4454 61.3088 45.4608L59.6138 44.3992ZM45.9713 50.86C39.4541 50.86 34.9667 48.6544 32.255 44.3931L30.5677 45.4669C33.7359 50.4455 38.9553 52.86 45.9713 52.86V50.86ZM32.2588 44.3992C29.5026 39.9981 28.0713 33.8382 28.0713 25.82H26.0713C26.0713 34.0418 27.5334 40.6219 30.5638 45.4608L32.2588 44.3992ZM56.2113 25.82C56.2113 22.3275 55.9758 19.3635 55.4919 16.9439L53.5308 17.3361C53.9802 19.5831 54.2113 22.4058 54.2113 25.82H56.2113ZM55.4961 16.9662C55.0499 14.438 54.0954 12.3171 52.5923 10.6585L51.1103 12.0015C52.3139 13.3296 53.1327 15.082 53.5265 17.3138L55.4961 16.9662ZM52.6039 10.6715C51.0517 8.89753 48.7761 8.09 45.9713 8.09V10.09C48.3932 10.09 50.0376 10.7758 51.0988 11.9885L52.6039 10.6715ZM45.9713 8.09C43.1645 8.09 40.8756 8.89817 39.2803 10.6585L40.7623 12.0015C41.8737 10.7752 43.5515 10.09 45.9713 10.09V8.09ZM39.2688 10.6715C37.8229 12.3239 36.8731 14.433 36.38 16.9476L38.3426 17.3324C38.7829 15.087 39.6064 13.3228 40.7739 11.9885L39.2688 10.6715ZM36.3771 16.9628C35.9431 19.3745 35.7313 22.3315 35.7313 25.82H37.7313C37.7313 22.4018 37.9396 19.5722 38.3455 17.3172L36.3771 16.9628ZM35.7313 25.82C35.7313 29.4012 35.943 32.449 36.376 34.9505L38.3467 34.6095C37.9396 32.2577 37.7313 29.3321 37.7313 25.82H35.7313ZM36.3765 34.9538C36.8227 37.482 37.7772 39.6029 39.2803 41.2615L40.7623 39.9185C39.5588 38.5904 38.7399 36.8379 38.3461 34.6062L36.3765 34.9538ZM39.2911 41.2732C40.8886 42.9809 43.1738 43.76 45.9713 43.76V41.76C43.5422 41.76 41.8607 41.0925 40.7516 39.9068L39.2911 41.2732ZM45.9713 43.76C48.7689 43.76 51.0541 42.9809 52.6516 41.2732L51.1911 39.9068C50.0819 41.0925 48.4005 41.76 45.9713 41.76V43.76ZM52.6623 41.2615C54.1654 39.6029 55.1199 37.482 55.5661 34.9538L53.5965 34.6062C53.2027 36.838 52.3839 38.5904 51.1803 39.9185L52.6623 41.2615ZM55.5667 34.9505C55.9996 32.449 56.2113 29.4012 56.2113 25.82H54.2113C54.2113 29.3321 54.003 32.2577 53.596 34.6095L55.5667 34.9505ZM110.055 31.35V32.35H111.055V31.35H110.055ZM96.8252 31.35V30.35H95.8252V31.35H96.8252ZM96.8252 44.93V45.93H97.8252V44.93H96.8252ZM87.5852 44.93H86.5852V45.93H87.5852V44.93ZM87.5852 31.35H88.5852V30.35H87.5852V31.35ZM74.3552 31.35H73.3552V32.35H74.3552V31.35ZM74.3552 22.81V21.81H73.3552V22.81H74.3552ZM87.5852 22.81V23.81H88.5852V22.81H87.5852ZM87.5852 9.23V8.23H86.5852V9.23H87.5852ZM96.8252 9.23H97.8252V8.23H96.8252V9.23ZM96.8252 22.81H95.8252V23.81H96.8252V22.81ZM110.055 22.81H111.055V21.81H110.055V22.81ZM110.055 30.35H96.8252V32.35H110.055V30.35ZM95.8252 31.35V44.93H97.8252V31.35H95.8252ZM96.8252 43.93H87.5852V45.93H96.8252V43.93ZM88.5852 44.93V31.35H86.5852V44.93H88.5852ZM87.5852 30.35H74.3552V32.35H87.5852V30.35ZM75.3552 31.35V22.81H73.3552V31.35H75.3552ZM74.3552 23.81H87.5852V21.81H74.3552V23.81ZM88.5852 22.81V9.23H86.5852V22.81H88.5852ZM87.5852 10.23H96.8252V8.23H87.5852V10.23ZM95.8252 9.23V22.81H97.8252V9.23H95.8252ZM96.8252 23.81H110.055V21.81H96.8252V23.81ZM109.055 22.81V31.35H111.055V22.81H109.055Z" fill="url(#paint0_linear_201_152)" mask="url(#path-1-outside-1_201_152)"/>
<defs>
<linearGradient id="paint0_linear_201_152" x1="57" y1="-22" x2="57" y2="67.25" gradientUnits="userSpaceOnUse">
<stop stop-color="#5735DC"/>
<stop offset="1" stop-color="#E53574"/>
</linearGradient>
</defs>
</svg>
