<svg width="163" height="53" viewBox="0 0 163 53" fill="none" xmlns="http://www.w3.org/2000/svg">
<mask id="path-1-outside-1_201_150" maskUnits="userSpaceOnUse" x="-1" y="-1" width="165" height="55" fill="black">
<rect fill="white" x="-1" y="-1" width="165" height="55"/>
<path d="M3.79 41.94C8.27 38.2067 11.84 35.1033 14.5 32.63C17.16 30.11 19.3767 27.4967 21.15 24.79C22.9233 22.0833 23.81 19.4233 23.81 16.81C23.81 14.43 23.25 12.5633 22.13 11.21C21.01 9.85666 19.2833 9.18 16.95 9.18C14.6167 9.18 12.82 9.97333 11.56 11.56C10.3 13.1 9.64667 15.2233 9.6 17.93H0.0800002C0.266667 12.33 1.92333 8.08333 5.05 5.19C8.22333 2.29666 12.2367 0.849995 17.09 0.849995C22.41 0.849995 26.4933 2.27333 29.34 5.12C32.1867 7.92 33.61 11.63 33.61 16.25C33.61 19.89 32.63 23.3667 30.67 26.68C28.71 29.9933 26.47 32.8867 23.95 35.36C21.43 37.7867 18.14 40.7267 14.08 44.18H34.73V52.3H0.15V45.02L3.79 41.94ZM73.3853 9.39L54.7653 53H44.8253L63.5853 10.51H39.6453V2.11H73.3853V9.39ZM79.2549 26.82C79.2549 18.7467 80.7016 12.4233 83.5949 7.85C86.5349 3.27666 91.3883 0.989998 98.1549 0.989998C104.922 0.989998 109.752 3.27666 112.645 7.85C115.585 12.4233 117.055 18.7467 117.055 26.82C117.055 34.94 115.585 41.31 112.645 45.93C109.752 50.55 104.922 52.86 98.1549 52.86C91.3883 52.86 86.5349 50.55 83.5949 45.93C80.7016 41.31 79.2549 34.94 79.2549 26.82ZM107.395 26.82C107.395 23.3667 107.162 20.4733 106.695 18.14C106.275 15.76 105.388 13.8233 104.035 12.33C102.728 10.8367 100.768 10.09 98.1549 10.09C95.5416 10.09 93.5583 10.8367 92.2049 12.33C90.8983 13.8233 90.0116 15.76 89.5449 18.14C89.1249 20.4733 88.9149 23.3667 88.9149 26.82C88.9149 30.3667 89.1249 33.3533 89.5449 35.78C89.9649 38.16 90.8516 40.0967 92.2049 41.59C93.5583 43.0367 95.5416 43.76 98.1549 43.76C100.768 43.76 102.752 43.0367 104.105 41.59C105.458 40.0967 106.345 38.16 106.765 35.78C107.185 33.3533 107.395 30.3667 107.395 26.82ZM162.239 32.35H149.009V45.93H139.769V32.35H126.539V23.81H139.769V10.23H149.009V23.81H162.239V32.35Z"/>
</mask>
<path d="M3.79 41.94L3.1498 41.1718L3.14406 41.1766L3.79 41.94ZM14.5 32.63L15.181 33.3624L15.1877 33.356L14.5 32.63ZM21.15 24.79L21.9865 25.338L21.15 24.79ZM22.13 11.21L21.3596 11.8476L22.13 11.21ZM11.56 11.56L12.334 12.1932L12.3386 12.1876L12.3431 12.1819L11.56 11.56ZM9.6 17.93V18.93H10.5829L10.5999 17.9472L9.6 17.93ZM0.0800002 17.93L-0.919445 17.8967L-0.953888 18.93H0.0800002V17.93ZM5.05 5.19L4.37623 4.45102L4.37081 4.45604L5.05 5.19ZM29.34 5.12L28.6329 5.82713L28.6388 5.83293L29.34 5.12ZM30.67 26.68L31.5307 27.1891L30.67 26.68ZM23.95 35.36L24.6437 36.0804L24.6505 36.0737L23.95 35.36ZM14.08 44.18L13.4321 43.4183L11.3609 45.18H14.08V44.18ZM34.73 44.18H35.73V43.18H34.73V44.18ZM34.73 52.3V53.3H35.73V52.3H34.73ZM0.15 52.3H-0.85V53.3H0.15V52.3ZM0.15 45.02L-0.495942 44.2566L-0.85 44.5562V45.02H0.15ZM4.43018 42.7082C8.91687 38.9693 12.5022 35.8531 15.1809 33.3623L13.8191 31.8977C11.1778 34.3536 7.62313 37.444 3.14982 41.1718L4.43018 42.7082ZM15.1877 33.356C17.8968 30.7895 20.1655 28.1175 21.9865 25.338L20.3135 24.242C18.5879 26.8759 16.4232 29.4305 13.8123 31.904L15.1877 33.356ZM21.9865 25.338C23.841 22.5074 24.81 19.6599 24.81 16.81H22.81C22.81 19.1868 22.0057 21.6593 20.3135 24.242L21.9865 25.338ZM24.81 16.81C24.81 14.2798 24.2141 12.1598 22.9004 10.5724L21.3596 11.8476C22.2859 12.9669 22.81 14.5802 22.81 16.81H24.81ZM22.9004 10.5724C21.5326 8.9197 19.4769 8.18 16.95 8.18V10.18C19.0898 10.18 20.4874 10.7936 21.3596 11.8476L22.9004 10.5724ZM16.95 8.18C14.3637 8.18 12.2568 9.07452 10.7769 10.9381L12.3431 12.1819C13.3832 10.8721 14.8696 10.18 16.95 10.18V8.18ZM10.786 10.9268C9.33989 12.6943 8.64931 15.0616 8.60015 17.9128L10.5999 17.9472C10.644 15.385 11.2601 13.5057 12.334 12.1932L10.786 10.9268ZM9.6 16.93H0.0800002V18.93H9.6V16.93ZM1.07945 17.9633C1.26013 12.5427 2.85464 8.58399 5.72919 5.92396L4.37081 4.45604C0.992023 7.58267 -0.726797 12.1173 -0.919445 17.8967L1.07945 17.9633ZM5.72375 5.92895C8.68864 3.22567 12.4511 1.84999 17.09 1.84999V-0.150005C12.0223 -0.150005 7.75803 1.36765 4.37625 4.45104L5.72375 5.92895ZM17.09 1.84999C22.2331 1.84999 26.0282 3.22237 28.6329 5.8271L30.0471 4.41289C26.9585 1.32429 22.5869 -0.150005 17.09 -0.150005V1.84999ZM28.6388 5.83293C31.264 8.41515 32.61 11.8524 32.61 16.25H34.61C34.61 11.4076 33.1093 7.42485 30.0412 4.40707L28.6388 5.83293ZM32.61 16.25C32.61 19.7004 31.6836 23.0025 29.8093 26.1709L31.5307 27.1891C33.5764 23.7309 34.61 20.0796 34.61 16.25H32.61ZM29.8093 26.1709C27.8896 29.416 25.7021 32.2391 23.2495 34.6463L24.6505 36.0737C27.2379 33.5342 29.5304 30.5706 31.5307 27.1891L29.8093 26.1709ZM23.2564 34.6397C20.7567 37.0468 17.4836 39.9722 13.4321 43.4183L14.7279 44.9417C18.7964 41.4812 22.1033 38.5266 24.6436 36.0803L23.2564 34.6397ZM14.08 45.18H34.73V43.18H14.08V45.18ZM33.73 44.18V52.3H35.73V44.18H33.73ZM34.73 51.3H0.15V53.3H34.73V51.3ZM1.15 52.3V45.02H-0.85V52.3H1.15ZM0.795942 45.7834L4.43594 42.7034L3.14406 41.1766L-0.495942 44.2566L0.795942 45.7834ZM73.3853 9.39L74.305 9.78267L74.3853 9.59455V9.39H73.3853ZM54.7653 53V54H55.4257L55.685 53.3927L54.7653 53ZM44.8253 53L43.9105 52.5961L43.2907 54H44.8253V53ZM63.5853 10.51L64.5001 10.9139L65.12 9.51H63.5853V10.51ZM39.6453 10.51H38.6453V11.51H39.6453V10.51ZM39.6453 2.11V1.11H38.6453V2.11H39.6453ZM73.3853 2.11H74.3853V1.11H73.3853V2.11ZM72.4656 8.99733L53.8456 52.6073L55.685 53.3927L74.305 9.78267L72.4656 8.99733ZM54.7653 52H44.8253V54H54.7653V52ZM45.7401 53.4039L64.5001 10.9139L62.6705 10.1061L43.9105 52.5961L45.7401 53.4039ZM63.5853 9.51H39.6453V11.51H63.5853V9.51ZM40.6453 10.51V2.11H38.6453V10.51H40.6453ZM39.6453 3.11H73.3853V1.11H39.6453V3.11ZM72.3853 2.11V9.39H74.3853V2.11H72.3853ZM83.5949 7.85L82.7537 7.30923L82.7498 7.31536L83.5949 7.85ZM112.645 7.85L111.8 8.38465L111.804 8.39075L112.645 7.85ZM112.645 45.93L111.801 45.3931L111.797 45.3992L112.645 45.93ZM83.5949 45.93L82.7474 46.4608L82.7513 46.4669L83.5949 45.93ZM106.695 18.14L105.71 18.3138L105.712 18.325L105.714 18.3361L106.695 18.14ZM104.035 12.33L103.282 12.9885L103.288 12.9951L103.294 13.0015L104.035 12.33ZM92.2049 12.33L91.4639 11.6585L91.4581 11.6649L91.4523 11.6715L92.2049 12.33ZM89.5449 18.14L88.5636 17.9476L88.5621 17.9552L88.5607 17.9628L89.5449 18.14ZM89.5449 35.78L88.5596 35.9505L88.5601 35.9538L89.5449 35.78ZM92.2049 41.59L91.4639 42.2615L91.4692 42.2674L91.4746 42.2732L92.2049 41.59ZM104.105 41.59L104.835 42.2732L104.841 42.2674L104.846 42.2615L104.105 41.59ZM106.765 35.78L107.75 35.9538L107.75 35.9505L106.765 35.78ZM80.2549 26.82C80.2549 18.8489 81.6861 12.7376 84.44 8.38464L82.7498 7.31536C79.7171 12.109 78.2549 18.6445 78.2549 26.82H80.2549ZM84.4361 8.39075C87.146 4.1754 91.6334 1.99 98.1549 1.99V-0.0100021C91.1431 -0.0100021 85.9239 2.37793 82.7537 7.30924L84.4361 8.39075ZM98.1549 1.99C104.677 1.99 109.137 4.17532 111.8 8.38464L113.49 7.31536C110.366 2.37801 105.166 -0.0100021 98.1549 -0.0100021V1.99ZM111.804 8.39075C114.601 12.7424 116.055 18.8511 116.055 26.82H118.055C118.055 18.6422 116.569 12.1042 113.486 7.30924L111.804 8.39075ZM116.055 26.82C116.055 34.836 114.601 40.9934 111.801 45.3931L113.489 46.4669C116.569 41.6266 118.055 35.044 118.055 26.82H116.055ZM111.797 45.3992C109.132 49.6546 104.673 51.86 98.1549 51.86V53.86C105.17 53.86 110.371 51.4454 113.492 46.4608L111.797 45.3992ZM98.1549 51.86C91.6377 51.86 87.1503 49.6544 84.4386 45.3931L82.7513 46.4669C85.9195 51.4455 91.1388 53.86 98.1549 53.86V51.86ZM84.4424 45.3992C81.6862 40.9981 80.2549 34.8382 80.2549 26.82H78.2549C78.2549 35.0418 79.717 41.6219 82.7474 46.4608L84.4424 45.3992ZM108.395 26.82C108.395 23.3275 108.159 20.3635 107.676 17.9439L105.714 18.3361C106.164 20.5831 106.395 23.4058 106.395 26.82H108.395ZM107.68 17.9662C107.234 15.438 106.279 13.3171 104.776 11.6585L103.294 13.0015C104.497 14.3296 105.316 16.082 105.71 18.3138L107.68 17.9662ZM104.787 11.6715C103.235 9.89753 100.96 9.09 98.1549 9.09V11.09C100.577 11.09 102.221 11.7758 103.282 12.9885L104.787 11.6715ZM98.1549 9.09C95.3481 9.09 93.0592 9.89817 91.4639 11.6585L92.9459 13.0015C94.0573 11.7752 95.7351 11.09 98.1549 11.09V9.09ZM91.4523 11.6715C90.0065 13.3239 89.0567 15.433 88.5636 17.9476L90.5262 18.3324C90.9665 16.087 91.79 14.3228 92.9575 12.9885L91.4523 11.6715ZM88.5607 17.9628C88.1266 20.3745 87.9149 23.3315 87.9149 26.82H89.9149C89.9149 23.4018 90.1232 20.5722 90.5291 18.3172L88.5607 17.9628ZM87.9149 26.82C87.9149 30.4012 88.1266 33.449 88.5596 35.9505L90.5303 35.6095C90.1232 33.2577 89.9149 30.3321 89.9149 26.82H87.9149ZM88.5601 35.9538C89.0063 38.482 89.9608 40.6029 91.4639 42.2615L92.9459 40.9185C91.7423 39.5904 90.9235 37.8379 90.5297 35.6062L88.5601 35.9538ZM91.4746 42.2732C93.0722 43.9809 95.3574 44.76 98.1549 44.76V42.76C95.7258 42.76 94.0443 42.0925 92.9352 40.9068L91.4746 42.2732ZM98.1549 44.76C100.952 44.76 103.238 43.9809 104.835 42.2732L103.375 40.9068C102.266 42.0925 100.584 42.76 98.1549 42.76V44.76ZM104.846 42.2615C106.349 40.6029 107.304 38.482 107.75 35.9538L105.78 35.6062C105.386 37.838 104.567 39.5904 103.364 40.9185L104.846 42.2615ZM107.75 35.9505C108.183 33.449 108.395 30.4012 108.395 26.82H106.395C106.395 30.3321 106.187 33.2577 105.78 35.6095L107.75 35.9505ZM162.239 32.35V33.35H163.239V32.35H162.239ZM149.009 32.35V31.35H148.009V32.35H149.009ZM149.009 45.93V46.93H150.009V45.93H149.009ZM139.769 45.93H138.769V46.93H139.769V45.93ZM139.769 32.35H140.769V31.35H139.769V32.35ZM126.539 32.35H125.539V33.35H126.539V32.35ZM126.539 23.81V22.81H125.539V23.81H126.539ZM139.769 23.81V24.81H140.769V23.81H139.769ZM139.769 10.23V9.23H138.769V10.23H139.769ZM149.009 10.23H150.009V9.23H149.009V10.23ZM149.009 23.81H148.009V24.81H149.009V23.81ZM162.239 23.81H163.239V22.81H162.239V23.81ZM162.239 31.35H149.009V33.35H162.239V31.35ZM148.009 32.35V45.93H150.009V32.35H148.009ZM149.009 44.93H139.769V46.93H149.009V44.93ZM140.769 45.93V32.35H138.769V45.93H140.769ZM139.769 31.35H126.539V33.35H139.769V31.35ZM127.539 32.35V23.81H125.539V32.35H127.539ZM126.539 24.81H139.769V22.81H126.539V24.81ZM140.769 23.81V10.23H138.769V23.81H140.769ZM139.769 11.23H149.009V9.23H139.769V11.23ZM148.009 10.23V23.81H150.009V10.23H148.009ZM149.009 24.81H162.239V22.81H149.009V24.81ZM161.239 23.81V32.35H163.239V23.81H161.239Z" fill="url(#paint0_linear_201_150)" mask="url(#path-1-outside-1_201_150)"/>
<defs>
<linearGradient id="paint0_linear_201_150" x1="82.5" y1="-21" x2="82.5" y2="68.25" gradientUnits="userSpaceOnUse">
<stop stop-color="#5735DC"/>
<stop offset="1" stop-color="#E53574"/>
</linearGradient>
</defs>
</svg>
