<svg width="125" height="51" viewBox="0 0 125 51" fill="none" xmlns="http://www.w3.org/2000/svg">
<mask id="path-1-outside-1_201_154" maskUnits="userSpaceOnUse" x="-1" y="-1" width="127" height="53" fill="black">
<rect fill="white" x="-1" y="-1" width="127" height="53"/>
<path d="M34.19 7.39L15.57 51H5.63L24.39 8.51H0.45V0.109996H34.19V7.39ZM68.7596 51L50.9796 29.23V51H41.1796V2.14H50.9796V24.05L68.7596 2.14H80.5896L60.4296 26.36L81.1496 51H68.7596ZM124.206 30.35H110.976V43.93H101.736V30.35H88.5056V21.81H101.736V8.23H110.976V21.81H124.206V30.35Z"/>
</mask>
<path d="M34.19 7.39L35.1097 7.78267L35.19 7.59455V7.39H34.19ZM15.57 51V52H16.2304L16.4897 51.3927L15.57 51ZM5.63 51L4.7152 50.5961L4.09535 52H5.63V51ZM24.39 8.51L25.3048 8.9139L25.9246 7.51H24.39V8.51ZM0.45 8.51H-0.55V9.50999H0.45V8.51ZM0.45 0.109997V-0.890003H-0.55V0.109997H0.45ZM34.19 0.109997H35.19V-0.890003H34.19V0.109997ZM33.2703 6.99733L14.6503 50.6073L16.4897 51.3927L35.1097 7.78267L33.2703 6.99733ZM15.57 50H5.63V52H15.57V50ZM6.5448 51.4039L25.3048 8.9139L23.4752 8.1061L4.7152 50.5961L6.5448 51.4039ZM24.39 7.51H0.45V9.50999H24.39V7.51ZM1.45 8.51V0.109997H-0.55V8.51H1.45ZM0.45 1.11H34.19V-0.890003H0.45V1.11ZM33.19 0.109997V7.39H35.19V0.109997H33.19ZM68.7596 51L67.9851 51.6326L68.2852 52H68.7596V51ZM50.9796 29.23L51.7541 28.5974L49.9796 26.4247V29.23H50.9796ZM50.9796 51V52H51.9796V51H50.9796ZM41.1796 51H40.1796V52H41.1796V51ZM41.1796 2.14V1.14H40.1796V2.14H41.1796ZM50.9796 2.14H51.9796V1.14H50.9796V2.14ZM50.9796 24.05H49.9796V26.8693L51.7561 24.6801L50.9796 24.05ZM68.7596 2.14V1.14H68.2833L67.9831 1.50987L68.7596 2.14ZM80.5896 2.14L81.3582 2.77975L82.7231 1.14H80.5896V2.14ZM60.4296 26.36L59.661 25.7202L59.1258 26.3633L59.6642 27.0036L60.4296 26.36ZM81.1496 51V52H83.2971L81.915 50.3564L81.1496 51ZM69.5341 50.3674L51.7541 28.5974L50.2051 29.8626L67.9851 51.6326L69.5341 50.3674ZM49.9796 29.23V51H51.9796V29.23H49.9796ZM50.9796 50H41.1796V52H50.9796V50ZM42.1796 51V2.14H40.1796V51H42.1796ZM41.1796 3.14H50.9796V1.14H41.1796V3.14ZM49.9796 2.14V24.05H51.9796V2.14H49.9796ZM51.7561 24.6801L69.5361 2.77012L67.9831 1.50987L50.2031 23.4199L51.7561 24.6801ZM68.7596 3.14H80.5896V1.14H68.7596V3.14ZM79.821 1.50025L59.661 25.7202L61.1982 26.9997L81.3582 2.77975L79.821 1.50025ZM59.6642 27.0036L80.3842 51.6436L81.915 50.3564L61.195 25.7164L59.6642 27.0036ZM81.1496 50H68.7596V52H81.1496V50ZM124.206 30.35V31.35H125.206V30.35H124.206ZM110.976 30.35V29.35H109.976V30.35H110.976ZM110.976 43.93V44.93H111.976V43.93H110.976ZM101.736 43.93H100.736V44.93H101.736V43.93ZM101.736 30.35H102.736V29.35H101.736V30.35ZM88.5056 30.35H87.5056V31.35H88.5056V30.35ZM88.5056 21.81V20.81H87.5056V21.81H88.5056ZM101.736 21.81V22.81H102.736V21.81H101.736ZM101.736 8.23V7.23H100.736V8.23H101.736ZM110.976 8.23H111.976V7.23H110.976V8.23ZM110.976 21.81H109.976V22.81H110.976V21.81ZM124.206 21.81H125.206V20.81H124.206V21.81ZM124.206 29.35H110.976V31.35H124.206V29.35ZM109.976 30.35V43.93H111.976V30.35H109.976ZM110.976 42.93H101.736V44.93H110.976V42.93ZM102.736 43.93V30.35H100.736V43.93H102.736ZM101.736 29.35H88.5056V31.35H101.736V29.35ZM89.5056 30.35V21.81H87.5056V30.35H89.5056ZM88.5056 22.81H101.736V20.81H88.5056V22.81ZM102.736 21.81V8.23H100.736V21.81H102.736ZM101.736 9.23H110.976V7.23H101.736V9.23ZM109.976 8.23V21.81H111.976V8.23H109.976ZM110.976 22.81H124.206V20.81H110.976V22.81ZM123.206 21.81V30.35H125.206V21.81H123.206Z" fill="url(#paint0_linear_201_154)" mask="url(#path-1-outside-1_201_154)"/>
<defs>
<linearGradient id="paint0_linear_201_154" x1="64" y1="-23" x2="64" y2="66.25" gradientUnits="userSpaceOnUse">
<stop stop-color="#5735DC"/>
<stop offset="1" stop-color="#E53574"/>
</linearGradient>
</defs>
</svg>
