<svg width="152" height="53" viewBox="0 0 152 53" fill="none" xmlns="http://www.w3.org/2000/svg">
<mask id="path-1-outside-1_201_156" maskUnits="userSpaceOnUse" x="-1" y="-1" width="154" height="55" fill="black">
<rect fill="white" x="-1" y="-1" width="154" height="55"/>
<path d="M0.52 11V1.97H17.39V53H7.31V11H0.52ZM30.1513 41.94C34.6313 38.2067 38.2013 35.1033 40.8613 32.63C43.5213 30.11 45.738 27.4967 47.5113 24.79C49.2847 22.0833 50.1713 19.4233 50.1713 16.81C50.1713 14.43 49.6113 12.5633 48.4913 11.21C47.3713 9.85666 45.6447 9.18 43.3113 9.18C40.978 9.18 39.1813 9.97333 37.9213 11.56C36.6613 13.1 36.008 15.2233 35.9613 17.93H26.4413C26.628 12.33 28.2847 8.08333 31.4113 5.19C34.5847 2.29666 38.598 0.849995 43.4513 0.849995C48.7713 0.849995 52.8547 2.27333 55.7013 5.12C58.548 7.92 59.9713 11.63 59.9713 16.25C59.9713 19.89 58.9913 23.3667 57.0313 26.68C55.0713 29.9933 52.8313 32.8867 50.3113 35.36C47.7913 37.7867 44.5013 40.7267 40.4413 44.18H61.0913V52.3H26.5113V45.02L30.1513 41.94ZM95.9666 53L78.1866 31.23V53H68.3866V4.14H78.1866V26.05L95.9666 4.14H107.797L87.6366 28.36L108.357 53H95.9666ZM151.413 32.35H138.183V45.93H128.943V32.35H115.713V23.81H128.943V10.23H138.183V23.81H151.413V32.35Z"/>
</mask>
<path d="M0.52 11H-0.48V12H0.52V11ZM0.52 1.97V0.969997H-0.48V1.97H0.52ZM17.39 1.97H18.39V0.969997H17.39V1.97ZM17.39 53V54H18.39V53H17.39ZM7.31 53H6.31V54H7.31V53ZM7.31 11H8.31V10H7.31V11ZM1.52 11V1.97H-0.48V11H1.52ZM0.52 2.97H17.39V0.969997H0.52V2.97ZM16.39 1.97V53H18.39V1.97H16.39ZM17.39 52H7.31V54H17.39V52ZM8.31 53V11H6.31V53H8.31ZM7.31 10H0.52V12H7.31V10ZM30.1513 41.94L29.5111 41.1718L29.5054 41.1766L30.1513 41.94ZM40.8613 32.63L41.5423 33.3624L41.5491 33.356L40.8613 32.63ZM47.5113 24.79L48.3478 25.338L47.5113 24.79ZM48.4913 11.21L47.7209 11.8476L48.4913 11.21ZM37.9213 11.56L38.6953 12.1932L38.6999 12.1876L38.7044 12.1819L37.9213 11.56ZM35.9613 17.93V18.93H36.9442L36.9612 17.9472L35.9613 17.93ZM26.4413 17.93L25.4419 17.8967L25.4074 18.93H26.4413V17.93ZM31.4113 5.19L30.7376 4.45102L30.7321 4.45604L31.4113 5.19ZM55.7013 5.12L54.9942 5.82713L55.0001 5.83293L55.7013 5.12ZM57.0313 26.68L57.892 27.1891L57.0313 26.68ZM50.3113 35.36L51.005 36.0804L51.0118 36.0737L50.3113 35.36ZM40.4413 44.18L39.7934 43.4183L37.7222 45.18H40.4413V44.18ZM61.0913 44.18H62.0913V43.18H61.0913V44.18ZM61.0913 52.3V53.3H62.0913V52.3H61.0913ZM26.5113 52.3H25.5113V53.3H26.5113V52.3ZM26.5113 45.02L25.8654 44.2566L25.5113 44.5562V45.02H26.5113ZM30.7915 42.7082C35.2782 38.9693 38.8636 35.8531 41.5423 33.3623L40.1804 31.8977C37.5391 34.3536 33.9845 37.444 29.5111 41.1718L30.7915 42.7082ZM41.5491 33.356C44.2581 30.7895 46.5268 28.1175 48.3478 25.338L46.6749 24.242C44.9492 26.8759 42.7846 29.4305 40.1736 31.904L41.5491 33.356ZM48.3478 25.338C50.2023 22.5074 51.1713 19.6599 51.1713 16.81H49.1713C49.1713 19.1868 48.367 21.6593 46.6749 24.242L48.3478 25.338ZM51.1713 16.81C51.1713 14.2798 50.5754 12.1598 49.2617 10.5724L47.7209 11.8476C48.6473 12.9669 49.1713 14.5802 49.1713 16.81H51.1713ZM49.2617 10.5724C47.8939 8.9197 45.8382 8.18 43.3113 8.18V10.18C45.4511 10.18 46.8487 10.7936 47.7209 11.8476L49.2617 10.5724ZM43.3113 8.18C40.7251 8.18 38.6181 9.07452 37.1382 10.9381L38.7044 12.1819C39.7445 10.8721 41.2309 10.18 43.3113 10.18V8.18ZM37.1474 10.9268C35.7012 12.6943 35.0106 15.0616 34.9615 17.9128L36.9612 17.9472C37.0054 15.385 37.6214 13.5057 38.6953 12.1932L37.1474 10.9268ZM35.9613 16.93H26.4413V18.93H35.9613V16.93ZM27.4408 17.9633C27.6215 12.5427 29.216 8.58399 32.0905 5.92396L30.7321 4.45604C27.3533 7.58267 25.6345 12.1173 25.4419 17.8967L27.4408 17.9633ZM32.0851 5.92895C35.05 3.22567 38.8124 1.84999 43.4513 1.84999V-0.150005C38.3836 -0.150005 34.1194 1.36765 30.7376 4.45104L32.0851 5.92895ZM43.4513 1.84999C48.5945 1.84999 52.3895 3.22237 54.9942 5.8271L56.4084 4.41289C53.3198 1.32429 48.9482 -0.150005 43.4513 -0.150005V1.84999ZM55.0001 5.83293C57.6253 8.41515 58.9713 11.8524 58.9713 16.25H60.9713C60.9713 11.4076 59.4706 7.42485 56.4026 4.40707L55.0001 5.83293ZM58.9713 16.25C58.9713 19.7004 58.0449 23.0025 56.1706 26.1709L57.892 27.1891C59.9377 23.7309 60.9713 20.0796 60.9713 16.25H58.9713ZM56.1706 26.1709C54.251 29.416 52.0635 32.2391 49.6109 34.6463L51.0118 36.0737C53.5992 33.5342 55.8917 30.5706 57.892 27.1891L56.1706 26.1709ZM49.6177 34.6397C47.118 37.0468 43.8449 39.9722 39.7934 43.4183L41.0892 44.9417C45.1577 41.4812 48.4646 38.5266 51.005 36.0803L49.6177 34.6397ZM40.4413 45.18H61.0913V43.18H40.4413V45.18ZM60.0913 44.18V52.3H62.0913V44.18H60.0913ZM61.0913 51.3H26.5113V53.3H61.0913V51.3ZM27.5113 52.3V45.02H25.5113V52.3H27.5113ZM27.1573 45.7834L30.7973 42.7034L29.5054 41.1766L25.8654 44.2566L27.1573 45.7834ZM95.9666 53L95.1921 53.6326L95.4922 54H95.9666V53ZM78.1866 31.23L78.9612 30.5974L77.1866 28.4247V31.23H78.1866ZM78.1866 53V54H79.1866V53H78.1866ZM68.3866 53H67.3866V54H68.3866V53ZM68.3866 4.14V3.14H67.3866V4.14H68.3866ZM78.1866 4.14H79.1866V3.14H78.1866V4.14ZM78.1866 26.05H77.1866V28.8693L78.9631 26.6801L78.1866 26.05ZM95.9666 4.14V3.14H95.4903L95.1901 3.50987L95.9666 4.14ZM107.797 4.14L108.565 4.77975L109.93 3.14H107.797V4.14ZM87.6366 28.36L86.8681 27.7202L86.3328 28.3633L86.8713 29.0036L87.6366 28.36ZM108.357 53V54H110.504L109.122 52.3564L108.357 53ZM96.7412 52.3674L78.9612 30.5974L77.4121 31.8626L95.1921 53.6326L96.7412 52.3674ZM77.1866 31.23V53H79.1866V31.23H77.1866ZM78.1866 52H68.3866V54H78.1866V52ZM69.3866 53V4.14H67.3866V53H69.3866ZM68.3866 5.14H78.1866V3.14H68.3866V5.14ZM77.1866 4.14V26.05H79.1866V4.14H77.1866ZM78.9631 26.6801L96.7431 4.77012L95.1901 3.50987L77.4101 25.4199L78.9631 26.6801ZM95.9666 5.14H107.797V3.14H95.9666V5.14ZM107.028 3.50025L86.8681 27.7202L88.4052 28.9997L108.565 4.77975L107.028 3.50025ZM86.8713 29.0036L107.591 53.6436L109.122 52.3564L88.402 27.7164L86.8713 29.0036ZM108.357 52H95.9666V54H108.357V52ZM151.413 32.35V33.35H152.413V32.35H151.413ZM138.183 32.35V31.35H137.183V32.35H138.183ZM138.183 45.93V46.93H139.183V45.93H138.183ZM128.943 45.93H127.943V46.93H128.943V45.93ZM128.943 32.35H129.943V31.35H128.943V32.35ZM115.713 32.35H114.713V33.35H115.713V32.35ZM115.713 23.81V22.81H114.713V23.81H115.713ZM128.943 23.81V24.81H129.943V23.81H128.943ZM128.943 10.23V9.23H127.943V10.23H128.943ZM138.183 10.23H139.183V9.23H138.183V10.23ZM138.183 23.81H137.183V24.81H138.183V23.81ZM151.413 23.81H152.413V22.81H151.413V23.81ZM151.413 31.35H138.183V33.35H151.413V31.35ZM137.183 32.35V45.93H139.183V32.35H137.183ZM138.183 44.93H128.943V46.93H138.183V44.93ZM129.943 45.93V32.35H127.943V45.93H129.943ZM128.943 31.35H115.713V33.35H128.943V31.35ZM116.713 32.35V23.81H114.713V32.35H116.713ZM115.713 24.81H128.943V22.81H115.713V24.81ZM129.943 23.81V10.23H127.943V23.81H129.943ZM128.943 11.23H138.183V9.23H128.943V11.23ZM137.183 10.23V23.81H139.183V10.23H137.183ZM138.183 24.81H151.413V22.81H138.183V24.81ZM150.413 23.81V32.35H152.413V23.81H150.413Z" fill="url(#paint0_linear_201_156)" mask="url(#path-1-outside-1_201_156)"/>
<defs>
<linearGradient id="paint0_linear_201_156" x1="78" y1="-21" x2="78" y2="68.25" gradientUnits="userSpaceOnUse">
<stop stop-color="#5735DC"/>
<stop offset="1" stop-color="#E53574"/>
</linearGradient>
</defs>
</svg>
