<svg width="36" height="37" viewBox="0 0 36 37" fill="none" xmlns="http://www.w3.org/2000/svg">
<path d="M12.0824 18.0548H5.18341C5.30109 11.1852 6.65441 10.0525 10.8762 7.55186C11.3616 7.25766 11.5234 6.63985 11.2292 6.13971C10.9497 5.65428 10.3172 5.49247 9.83175 5.78667C4.85979 8.72866 3.12402 10.5233 3.12402 19.0697V26.9984C3.12402 29.5138 5.1687 31.5438 7.66939 31.5438H12.0824C14.6713 31.5438 16.6277 29.5873 16.6277 26.9984V22.5854C16.6277 20.0112 14.6713 18.0548 12.0824 18.0548Z" fill="url(#paint0_linear_201_641)"/>
<path d="M27.9984 18.0548H21.0995C21.2172 11.1852 22.5705 10.0525 26.7922 7.55186C27.2777 7.25766 27.4395 6.63985 27.1453 6.13971C26.8511 5.65428 26.2333 5.49247 25.7331 5.78667C20.7612 8.72866 19.0254 10.5233 19.0254 19.0844V27.0131C19.0254 29.5285 21.0701 31.5585 23.5708 31.5585H27.9837C30.5727 31.5585 32.5291 29.602 32.5291 27.0131V22.6001C32.5438 20.0112 30.5874 18.0548 27.9984 18.0548Z" fill="url(#paint1_linear_201_641)"/>
<defs>
<linearGradient id="paint0_linear_201_641" x1="18.6778" y1="193.685" x2="-16.1753" y2="192.246" gradientUnits="userSpaceOnUse">
<stop stop-color="#6C38D0"/>
<stop offset="1" stop-color="#CF3886"/>
</linearGradient>
<linearGradient id="paint1_linear_201_641" x1="34.5793" y1="193.792" x2="-0.274084" y2="192.353" gradientUnits="userSpaceOnUse">
<stop stop-color="#6C38D0"/>
<stop offset="1" stop-color="#CF3886"/>
</linearGradient>
</defs>
</svg>
